<?xml version="1.0" encoding="UTF-8" standalone="no"?>
<!-- Created with Inkscape (http://www.inkscape.org/) -->

<svg
   xmlns:dc="http://purl.org/dc/elements/1.1/"
   xmlns:cc="http://creativecommons.org/ns#"
   xmlns:rdf="http://www.w3.org/1999/02/22-rdf-syntax-ns#"
   xmlns:svg="http://www.w3.org/2000/svg"
   xmlns="http://www.w3.org/2000/svg"
   xmlns:sodipodi="http://sodipodi.sourceforge.net/DTD/sodipodi-0.dtd"
   xmlns:inkscape="http://www.inkscape.org/namespaces/inkscape"
   width="25mm"
   height="6mm"
   viewBox="0 0 76.589821 18.309149"
   version="1.1"
   id="svg8"
   sodipodi:docname="labsin-logo.svg"
   inkscape:version="0.92.4 (5da689c313, 2019-01-14)">
  <defs
     id="defs2" />
  <sodipodi:namedview
     id="base"
     pagecolor="#ffffff"
     bordercolor="#666666"
     borderopacity="1.0"
     inkscape:pageopacity="0.0"
     inkscape:pageshadow="2"
     inkscape:zoom="2.8284271"
     inkscape:cx="66.979596"
     inkscape:cy="15.817731"
     inkscape:document-units="mm"
     inkscape:current-layer="layer1"
     showgrid="false"
     inkscape:window-width="1920"
     inkscape:window-height="1027"
     inkscape:window-x="1912"
     inkscape:window-y="-8"
     inkscape:window-maximized="1"
     fit-margin-top="0"
     fit-margin-left="0"
     fit-margin-right="0"
     fit-margin-bottom="0" />
  <metadata
     id="metadata5">
    <rdf:RDF>
      <cc:Work
         rdf:about="">
        <dc:format>image/svg+xml</dc:format>
        <dc:type
           rdf:resource="http://purl.org/dc/dcmitype/StillImage" />
        <dc:title />
      </cc:Work>
    </rdf:RDF>
  </metadata>
  <g
     inkscape:label="Layer 1"
     inkscape:groupmode="layer"
     id="layer1"
     transform="translate(-1.3015061,-1.3524135)">
    <path
       style="fill:none;stroke:#cf4e00;stroke-width:0.36565602;stroke-linecap:butt;stroke-linejoin:miter;stroke-miterlimit:4;stroke-dasharray:none;stroke-opacity:1"
       d="M 4.4937219,5.1240906 3.4801299,4.2675778"
       id="path949-7-6-5-7"
       inkscape:connector-curvature="0"
       sodipodi:nodetypes="cc"
       inkscape:export-xdpi="1199.86"
       inkscape:export-ydpi="1199.86" />
    <path
       style="fill:none;stroke:#cf4e00;stroke-width:0.36565602;stroke-linecap:butt;stroke-linejoin:miter;stroke-miterlimit:4;stroke-dasharray:none;stroke-opacity:1"
       d="M 4.4935229,15.893748 3.4799299,16.75026"
       id="path949-7-6-5-7-4"
       inkscape:connector-curvature="0"
       sodipodi:nodetypes="cc"
       inkscape:export-xdpi="1199.86"
       inkscape:export-ydpi="1199.86" />
    <path
       style="fill:none;stroke:#cf4e00;stroke-width:0.36565602;stroke-linecap:butt;stroke-linejoin:miter;stroke-miterlimit:4;stroke-dasharray:none;stroke-opacity:1"
       d="m 21.608477,10.667145 -1.589802,0.0082"
       id="path949-7-6-5"
       inkscape:connector-curvature="0"
       sodipodi:nodetypes="cc"
       inkscape:export-xdpi="1199.86"
       inkscape:export-ydpi="1199.86" />
    <path
       style="fill:none;fill-opacity:1;stroke:#3a3b3b;stroke-width:0.79351956;stroke-miterlimit:4;stroke-dasharray:none;stroke-opacity:1"
       id="path821"
       sodipodi:type="arc"
       sodipodi:cx="11.15405"
       sodipodi:cy="10.507042"
       sodipodi:rx="8.7580414"
       sodipodi:ry="8.7579584"
       sodipodi:start="3.9887686"
       sodipodi:end="6.1844542"
       sodipodi:open="true"
       d="M 5.3553317,3.9437089 A 8.7580414,8.7579584 0 0 1 14.355542,2.355203 8.7580414,8.7579584 0 0 1 19.86944,9.6437631"
       inkscape:export-xdpi="1199.86"
       inkscape:export-ydpi="1199.86" />
    <path
       style="fill:none;fill-opacity:1;stroke:#3a3b3b;stroke-width:0.79351956;stroke-miterlimit:4;stroke-dasharray:none;stroke-opacity:1"
       id="path821-4"
       sodipodi:type="arc"
       sodipodi:cx="11.15117"
       sodipodi:cy="10.507403"
       sodipodi:rx="8.7580414"
       sodipodi:ry="8.7579584"
       sodipodi:start="2.4399632"
       sodipodi:end="3.843125"
       d="M 4.4618527,16.160342 A 8.7580414,8.7579584 0 0 1 4.4613037,4.8551139"
       sodipodi:open="true"
       inkscape:export-xdpi="1199.86"
       inkscape:export-ydpi="1199.86" />
    <path
       style="fill:none;fill-opacity:1;stroke:#3a3b3b;stroke-width:0.79351956;stroke-miterlimit:4;stroke-dasharray:none;stroke-opacity:1"
       id="path821-40"
       sodipodi:type="arc"
       sodipodi:cx="11.15405"
       sodipodi:cy="10.507042"
       sodipodi:rx="8.7580414"
       sodipodi:ry="8.7579584"
       sodipodi:start="6.2816635"
       sodipodi:end="2.2952719"
       d="M 19.912081,10.493714 A 8.7580414,8.7579584 0 0 1 14.756563,18.489772 8.7580414,8.7579584 0 0 1 5.3497208,17.065414"
       sodipodi:open="true"
       inkscape:export-xdpi="1199.86"
       inkscape:export-ydpi="1199.86" />
    <circle
       style="fill:#cf4e00;fill-opacity:1;stroke:#cf4e00;stroke-width:0.67315167;stroke-miterlimit:4;stroke-dasharray:none;stroke-opacity:1"
       id="path874"
       cx="8.7475462"
       cy="5.8743739"
       r="0.23388681"
       inkscape:export-xdpi="1199.86"
       inkscape:export-ydpi="1199.86" />
    <circle
       style="fill:#cf4e00;fill-opacity:1;stroke:#cf4e00;stroke-width:0.67315167;stroke-miterlimit:4;stroke-dasharray:none;stroke-opacity:1"
       id="path874-7"
       cx="13.530972"
       cy="5.8743739"
       r="0.23388681"
       inkscape:export-xdpi="1199.86"
       inkscape:export-ydpi="1199.86" />
    <circle
       style="fill:#cf4e00;fill-opacity:1;stroke:#cf4e00;stroke-width:0.67315167;stroke-miterlimit:4;stroke-dasharray:none;stroke-opacity:1"
       id="path874-2"
       cx="8.7475462"
       cy="15.146751"
       r="0.23388681"
       inkscape:export-xdpi="1199.86"
       inkscape:export-ydpi="1199.86" />
    <circle
       style="fill:#cf4e00;fill-opacity:1;stroke:#cf4e00;stroke-width:0.67315167;stroke-miterlimit:4;stroke-dasharray:none;stroke-opacity:1"
       id="path874-7-5"
       cx="13.530972"
       cy="15.146751"
       r="0.23388681"
       inkscape:export-xdpi="1199.86"
       inkscape:export-ydpi="1199.86" />
    <circle
       style="fill:#cf4e00;fill-opacity:1;stroke:#cf4e00;stroke-width:0.67315167;stroke-miterlimit:4;stroke-dasharray:none;stroke-opacity:1"
       id="path874-7-5-4"
       cx="16.654196"
       cy="10.51355"
       r="0.23388681"
       inkscape:export-xdpi="1199.86"
       inkscape:export-ydpi="1199.86" />
    <circle
       style="fill:#cf4e00;fill-opacity:1;stroke:#cf4e00;stroke-width:0.67315167;stroke-miterlimit:4;stroke-dasharray:none;stroke-opacity:1"
       id="path874-7-5-4-6"
       cx="5.63205"
       cy="10.51355"
       r="0.23388681"
       inkscape:export-xdpi="1199.86"
       inkscape:export-ydpi="1199.86" />
    <path
       style="fill:none;stroke:#cf4e00;stroke-width:0.15042871px;stroke-linecap:butt;stroke-linejoin:miter;stroke-opacity:1"
       d="M 8.7443179,5.8661462 16.646062,10.471425"
       id="path949"
       inkscape:connector-curvature="0"
       sodipodi:nodetypes="cc"
       inkscape:export-xdpi="1199.86"
       inkscape:export-ydpi="1199.86" />
    <path
       style="fill:none;stroke:#cf4e00;stroke-width:0.15042871px;stroke-linecap:butt;stroke-linejoin:miter;stroke-opacity:1"
       d="M 5.6255409,10.508162 13.527288,5.856921"
       id="path949-9"
       inkscape:connector-curvature="0"
       sodipodi:nodetypes="cc"
       inkscape:export-xdpi="1199.86"
       inkscape:export-ydpi="1199.86" />
    <path
       style="fill:none;stroke:#cf4e00;stroke-width:0.15042871px;stroke-linecap:butt;stroke-linejoin:miter;stroke-opacity:1"
       d="M 16.646062,10.471425 8.7462339,15.171914"
       id="path949-1"
       inkscape:connector-curvature="0"
       sodipodi:nodetypes="cc"
       inkscape:export-xdpi="1199.86"
       inkscape:export-ydpi="1199.86" />
    <path
       style="fill:none;stroke:#cf4e00;stroke-width:0.15042871px;stroke-linecap:butt;stroke-linejoin:miter;stroke-opacity:1"
       d="M 13.523445,15.124669 5.6435319,10.526154"
       id="path949-1-1"
       inkscape:connector-curvature="0"
       sodipodi:nodetypes="cc"
       inkscape:export-xdpi="1199.86"
       inkscape:export-ydpi="1199.86" />
    <path
       style="fill:none;stroke:#cf4e00;stroke-width:0.15042871px;stroke-linecap:butt;stroke-linejoin:miter;stroke-opacity:1"
       d="m 13.523445,15.124669 0.0038,-9.267748"
       id="path949-1-1-9-9"
       inkscape:connector-curvature="0"
       sodipodi:nodetypes="cc"
       inkscape:export-xdpi="1199.86"
       inkscape:export-ydpi="1199.86" />
    <path
       style="fill:none;stroke:#cf4e00;stroke-width:0.15042871px;stroke-linecap:butt;stroke-linejoin:miter;stroke-opacity:1"
       d="m 8.7462339,15.171914 -0.0019,-9.3057678"
       id="path949-1-1-9-9-1"
       inkscape:connector-curvature="0"
       sodipodi:nodetypes="cc"
       inkscape:export-xdpi="1199.86"
       inkscape:export-ydpi="1199.86" />
    <path
       style="fill:none;stroke:#cf4e00;stroke-width:0.15042871px;stroke-linecap:butt;stroke-linejoin:miter;stroke-opacity:1"
       d="M 16.646062,10.471425 13.527288,5.856921"
       id="path949-1-1-9-9-8"
       inkscape:connector-curvature="0"
       sodipodi:nodetypes="cc"
       inkscape:export-xdpi="1199.86"
       inkscape:export-ydpi="1199.86" />
    <path
       style="fill:none;stroke:#cf4e00;stroke-width:0.15042871px;stroke-linecap:butt;stroke-linejoin:miter;stroke-opacity:1"
       d="m 16.646062,10.471425 -3.122617,4.653244"
       id="path949-1-1-9-9-8-3"
       inkscape:connector-curvature="0"
       sodipodi:nodetypes="cc"
       inkscape:export-xdpi="1199.86"
       inkscape:export-ydpi="1199.86" />
    <path
       style="fill:none;stroke:#cf4e00;stroke-width:0.15042871px;stroke-linecap:butt;stroke-linejoin:miter;stroke-opacity:1"
       d="M 8.7442949,5.8661462 5.6255409,10.508152"
       id="path949-1-1-9-9-8-3-1"
       inkscape:connector-curvature="0"
       sodipodi:nodetypes="cc"
       inkscape:export-xdpi="1199.86"
       inkscape:export-ydpi="1199.86" />
    <path
       style="fill:none;stroke:#cf4e00;stroke-width:0.15042871px;stroke-linecap:butt;stroke-linejoin:miter;stroke-opacity:1"
       d="M 8.7462339,15.171914 5.6255409,10.508152"
       id="path949-1-1-9-9-8-3-1-2"
       inkscape:connector-curvature="0"
       sodipodi:nodetypes="cc"
       inkscape:export-xdpi="1199.86"
       inkscape:export-ydpi="1199.86" />
    <path
       style="fill:none;stroke:#cf4e00;stroke-width:0.15042871px;stroke-linecap:butt;stroke-linejoin:miter;stroke-opacity:1"
       d="M 8.7462339,15.171914 13.527288,5.856921"
       id="path949-1-1-9-9-3"
       inkscape:connector-curvature="0"
       sodipodi:nodetypes="cc"
       inkscape:export-xdpi="1199.86"
       inkscape:export-ydpi="1199.86" />
    <path
       style="fill:none;stroke:#cf4e00;stroke-width:0.15042871px;stroke-linecap:butt;stroke-linejoin:miter;stroke-opacity:1"
       d="M 13.523445,15.124669 8.7443179,5.8661462"
       id="path949-1-1-9-9-3-2"
       inkscape:connector-curvature="0"
       sodipodi:nodetypes="cc"
       inkscape:export-xdpi="1199.86"
       inkscape:export-ydpi="1199.86" />
    <path
       style="fill:none;fill-opacity:1;stroke:#cf4e00;stroke-width:0.18848246;stroke-miterlimit:4;stroke-dasharray:none;stroke-opacity:1"
       id="path1131"
       sodipodi:type="arc"
       sodipodi:cx="11.135558"
       sodipodi:cy="8.3003492"
       sodipodi:rx="3.4633241"
       sodipodi:ry="3.4633241"
       sodipodi:start="3.9541089"
       sodipodi:end="5.470669"
       d="m 8.753921,5.7859073 a 3.4633241,3.4633241 0 0 1 4.763274,-2e-7"
       sodipodi:open="true"
       inkscape:export-xdpi="1199.86"
       inkscape:export-ydpi="1199.86" />
    <path
       style="fill:none;fill-opacity:1;stroke:#cf4e00;stroke-width:0.18848246;stroke-miterlimit:4;stroke-dasharray:none;stroke-opacity:1"
       id="path1131-2"
       sodipodi:type="arc"
       sodipodi:cx="11.135558"
       sodipodi:cy="-12.681202"
       sodipodi:rx="3.4633241"
       sodipodi:ry="3.4633241"
       sodipodi:start="3.9541089"
       sodipodi:end="5.470669"
       d="m 8.753921,-15.195644 a 3.4633241,3.4633241 0 0 1 4.763274,0"
       sodipodi:open="true"
       transform="scale(1,-1)"
       inkscape:export-xdpi="1199.86"
       inkscape:export-ydpi="1199.86" />
    <path
       style="fill:none;stroke:#cf4e00;stroke-width:0.15042871px;stroke-linecap:butt;stroke-linejoin:miter;stroke-opacity:1"
       d="m 5.6255409,10.508152 11.0070281,0.0082"
       id="path949-7"
       inkscape:connector-curvature="0"
       sodipodi:nodetypes="cc"
       inkscape:export-xdpi="1199.86"
       inkscape:export-ydpi="1199.86" />
    <path
       style="fill:none;stroke:#cf4e00;stroke-width:0.15024747;stroke-linecap:butt;stroke-linejoin:miter;stroke-miterlimit:4;stroke-dasharray:none;stroke-opacity:1"
       d="m 18.289339,10.516456 -1.589802,0.0082"
       id="path949-7-6"
       inkscape:connector-curvature="0"
       sodipodi:nodetypes="cc"
       inkscape:export-xdpi="1199.86"
       inkscape:export-ydpi="1199.86" />
    <path
       style="fill:none;stroke:#cf4e00;stroke-width:0.15024747;stroke-linecap:butt;stroke-linejoin:miter;stroke-miterlimit:4;stroke-dasharray:none;stroke-opacity:1"
       d="m 5.6418649,10.508297 -1.589802,0.0082"
       id="path949-7-6-8"
       inkscape:connector-curvature="0"
       sodipodi:nodetypes="cc"
       inkscape:export-xdpi="1199.86"
       inkscape:export-ydpi="1199.86" />
    <circle
       style="fill:#cf4e00;fill-opacity:1;stroke:#cf4e00;stroke-width:1.39371872;stroke-miterlimit:4;stroke-dasharray:none;stroke-opacity:1"
       id="path874-7-5-46"
       cx="22.205585"
       cy="10.669545"
       r="0.48424807"
       inkscape:export-xdpi="1199.86"
       inkscape:export-ydpi="1199.86" />
    <circle
       style="fill:none;fill-opacity:1;stroke:#cf4e00;stroke-width:0.35003886;stroke-miterlimit:4;stroke-dasharray:none;stroke-opacity:1"
       id="path1255"
       cx="2.4530768"
       cy="3.2428694"
       r="0.97635394"
       inkscape:export-xdpi="1199.86"
       inkscape:export-ydpi="1199.86" />
    <path
       style="fill:none;fill-opacity:1;stroke:#cf4e00;stroke-width:0.29192343;stroke-miterlimit:4;stroke-dasharray:none;stroke-opacity:1"
       id="path1255-5"
       sodipodi:type="arc"
       sodipodi:cx="2.4462447"
       sodipodi:cy="3.2495418"
       sodipodi:rx="1.5064445"
       sodipodi:ry="1.5064445"
       sodipodi:start="6.2815544"
       sodipodi:end="1.5715229"
       d="M 3.9526872,3.2470849 A 1.5064445,1.5064445 0 0 1 3.5119434,4.3142771 1.5064445,1.5064445 0 0 1 2.4451502,4.7559858"
       sodipodi:open="true"
       inkscape:export-xdpi="1199.86"
       inkscape:export-ydpi="1199.86" />
    <circle
       style="fill:none;fill-opacity:1;stroke:#cf4e00;stroke-width:0.35003886;stroke-miterlimit:4;stroke-dasharray:none;stroke-opacity:1"
       id="path1255-51"
       cx="2.4528794"
       cy="-17.77487"
       transform="scale(1,-1)"
       r="0.97635394"
       inkscape:export-xdpi="1199.86"
       inkscape:export-ydpi="1199.86" />
    <path
       style="fill:none;fill-opacity:1;stroke:#cf4e00;stroke-width:0.29192343;stroke-miterlimit:4;stroke-dasharray:none;stroke-opacity:1"
       id="path1255-5-4"
       sodipodi:type="arc"
       sodipodi:cx="2.4460454"
       sodipodi:cy="-17.768196"
       sodipodi:rx="1.5064445"
       sodipodi:ry="1.5064445"
       sodipodi:start="6.2815544"
       sodipodi:end="1.5715229"
       d="m 3.9524878,-17.770653 a 1.5064445,1.5064445 0 0 1 -0.4407438,1.067192 1.5064445,1.5064445 0 0 1 -1.0667931,0.441709"
       sodipodi:open="true"
       transform="scale(1,-1)"
       inkscape:export-xdpi="1199.86"
       inkscape:export-ydpi="1199.86" />
    <text
       xml:space="preserve"
       style="font-style:normal;font-variant:normal;font-weight:normal;font-stretch:normal;font-size:10.58333302px;line-height:1.25;font-family:'Wide Latin';-inkscape-font-specification:'Wide Latin';letter-spacing:0px;word-spacing:0px;fill:#000000;fill-opacity:1;stroke:none;stroke-width:0.26458332"
       x="13.626041"
       y="294.35416"
       id="text860"><tspan
         sodipodi:role="line"
         id="tspan858"
         x="13.626041"
         y="303.71121"
         style="font-style:normal;font-variant:normal;font-weight:normal;font-stretch:normal;font-family:'Wide Latin';-inkscape-font-specification:'Wide Latin';stroke-width:0.26458332" /></text>
    <g
       aria-label="LABSIN"
       style="font-style:normal;font-variant:normal;font-weight:normal;font-stretch:normal;font-size:10.58333302px;line-height:1.25;-inkscape-font-specification:'D3 Euronism';letter-spacing:0px;word-spacing:0px;fill:#3a3b3b;fill-opacity:1;stroke:none;stroke-width:0.26458332"
       id="text856-44">
      <path
         d="M 27.982231,14.165906 Q 27.76519,14.1349 27.599826,13.948865 L 27.496473,13.752494 V 7.2722698 q 0.1757,-0.4030762 0.56844,-0.4030762 0.248047,0.020671 0.413412,0.2377116 l 0.08268,0.1653646 v 5.7980952 h 7.813476 q 0.413412,0.113688 0.465088,0.578776 -0.103353,0.444418 -0.516764,0.516765 z"
         style="fill:#3a3b3b;fill-opacity:1;stroke-width:0.26458332"
         id="path51" />
      <path
         d="m 45.65557,14.217582 q -0.103353,-0.02067 -0.217041,-0.06201 -0.103353,-0.04134 -0.186035,-0.124023 l -1.260905,-1.943034 h -4.950602 l -1.291911,1.984375 q -0.496094,0.289388 -0.785482,-0.07235 -0.08268,-0.103353 -0.103352,-0.217041 -0.02067,-0.113688 0,-0.248047 l 1.405598,-2.232422 q 0.124024,-0.330729 0.496094,-0.268717 l 4.51652,-0.01033 -2.222086,-3.3176272 q -0.186035,-0.4754232 0.144694,-0.7338053 0.330729,-0.2790528 0.713134,0.062012 l 4.206462,6.2941888 q 0.165365,0.289388 0.02067,0.599447 -0.186036,0.206706 -0.279053,0.237712 -0.09302,0.03101 -0.206706,0.05168 z"
         style="fill:#3a3b3b;fill-opacity:1;stroke-width:0.26458332"
         id="path53" />
      <path
         d="m 47.205863,14.165906 q -0.103353,-0.03101 -0.206706,-0.07235 -0.09302,-0.04134 -0.1757,-0.144694 L 46.720104,13.752494 V 9.9801147 Q 46.823457,9.6080444 47.10251,9.5770386 h 6.252848 Q 53.78944,9.484021 53.944469,9.3186564 54.099499,9.1532919 54.14084,8.9465861 54.182181,8.7295451 54.151175,8.5331747 53.996146,7.9543987 53.43804,7.8510458 H 47.154186 L 46.854463,7.6856812 Q 46.771781,7.5719931 46.730439,7.4583049 46.699434,7.3342815 46.720104,7.1895875 46.844128,6.8381878 47.10251,6.7865113 h 6.500895 q 0.330729,0.082682 0.630452,0.2377116 0.299724,0.144694 0.54777,0.4134115 0.268718,0.3307291 0.382406,0.7131347 0.113688,0.3824056 0.05168,0.8164876 -0.05168,0.2480469 -0.155029,0.4650879 -0.09302,0.217041 -0.248047,0.4134114 0.3514,0.165365 0.640788,0.444417 0.289388,0.268718 0.444417,0.620117 0.08268,0.248047 0.124024,0.496094 0.04134,0.248047 0.04134,0.516765 -0.02067,0.465087 -0.217041,0.878499 -0.186035,0.403076 -0.568441,0.733805 -0.382405,0.299723 -0.837158,0.444417 -0.454753,0.134359 -0.919841,0.186036 z m 7.224365,-1.364258 q 0.155029,-0.08268 0.289388,-0.248047 0.144694,-0.165365 0.19637,-0.330729 l 0.05168,-0.651123 q -0.02067,-0.165365 -0.124024,-0.310059 -0.09302,-0.155029 -0.227376,-0.268717 -0.217041,-0.165365 -0.475423,-0.248047 -0.258382,-0.08268 -0.537435,-0.103353 h -5.818766 v 2.428792 h 5.849772 q 0.217041,-0.02067 0.403076,-0.09302 0.19637,-0.07235 0.392741,-0.1757 z"
         style="fill:#3a3b3b;fill-opacity:1;stroke-width:0.26458332"
         id="path55" />
      <path
         d="m 57.985565,14.165906 q -0.74414,-0.05168 -1.229899,-0.630453 -0.310059,-0.413411 -0.382406,-0.930176 v -0.351399 q 0.124024,-0.279053 0.248047,-0.361735 0.134359,-0.08268 0.403077,-0.05168 0.403076,0.113688 0.403076,0.413412 0,0.299723 0.134358,0.516764 0.144694,0.217041 0.423747,0.299723 h 5.684408 q 0.434082,-0.08268 0.764811,-0.413411 0.134358,-0.217041 0.186035,-0.485759 v -0.413411 q -0.02067,-0.382406 -0.3514,-0.651123 -0.248047,-0.196371 -0.578776,-0.248047 h -5.23999 Q 57.489471,10.806938 56.776337,10.093803 56.445607,9.6803914 56.37326,9.194633 V 8.5331747 Q 56.476613,7.8820517 57.024384,7.3859579 57.675507,6.92087 58.450653,6.8691936 h 5.550049 q 0.733805,0.051676 1.250569,0.5477702 0.465088,0.5374349 0.465088,1.2815755 -0.02067,0.217041 -0.217041,0.3824055 Q 65.313283,9.2153036 65.03423,9.194633 64.765513,9.0706096 64.693166,8.905245 64.620819,8.7398804 64.589813,8.4298218 64.569142,8.109428 64.052378,7.9543987 h -5.663737 q -0.465088,0.062012 -0.785481,0.3927408 -0.165365,0.2687175 -0.165365,0.5994466 0,0.3203939 0.268717,0.5477702 0.299724,0.217041 0.682129,0.2687174 h 5.281332 q 0.899169,0.082682 1.581298,0.7958173 0.413412,0.54777 0.465088,1.229899 v 0.3514 q -0.05168,0.878499 -0.733805,1.508951 -0.630453,0.465088 -1.395264,0.516765 z"
         style="fill:#3a3b3b;fill-opacity:1;stroke-width:0.26458332"
         id="path57" />
      <path
         d="m 67.028943,14.165906 q -0.103353,-0.03101 -0.217041,-0.08268 -0.103353,-0.05168 -0.186035,-0.165364 l -0.08268,-0.165365 V 7.2722698 l 0.134359,-0.2377116 q 0.08268,-0.082682 0.206705,-0.1240234 0.124024,-0.041341 0.227377,-0.041341 0.113688,0.020671 0.206705,0.062012 0.09302,0.041341 0.1757,0.1550293 l 0.113688,0.217041 v 6.4285484 q -0.113688,0.403076 -0.578776,0.434082 z"
         style="fill:#3a3b3b;fill-opacity:1;stroke-width:0.26458332"
         id="path59" />
      <path
         d="M 69.033989,14.165906 Q 68.816948,14.1349 68.651583,13.948865 L 68.54823,13.752494 V 7.2722698 q 0.07235,-0.5477702 0.568441,-0.4030762 l 7.679118,5.6327314 V 7.3342815 l 0.19637,-0.3307292 q 0.186035,-0.1343587 0.413412,-0.1343587 0.413411,0.1033529 0.485758,0.5167643 v 6.2631831 q -0.103353,0.651123 -0.702799,0.413412 L 69.612765,8.4814983 v 5.2709957 q -0.08268,0.217041 -0.299723,0.361735 z"
         style="fill:#3a3b3b;fill-opacity:1;stroke-width:0.26458332"
         id="path61" />
    </g>
    <path
       style="fill:none;stroke:#3a3b3b;stroke-width:1.03999996;stroke-linecap:butt;stroke-linejoin:miter;stroke-miterlimit:4;stroke-dasharray:none;stroke-opacity:1"
       d="m 47.248434,12.881732 -0.01861,-6.09461"
       id="path862-5"
       inkscape:connector-curvature="0"
       sodipodi:nodetypes="cc"
       inkscape:export-xdpi="1199.86"
       inkscape:export-ydpi="1199.86" />
    <g
       aria-label="A"
       transform="scale(-1,1)"
       style="font-style:normal;font-variant:normal;font-weight:normal;font-stretch:normal;font-size:10.58333302px;line-height:1.25;font-family:'D3 Euronism';-inkscape-font-specification:'D3 Euronism';letter-spacing:0px;word-spacing:0px;fill:#3a3b3b;fill-opacity:1;stroke:none;stroke-width:0.26458332"
       id="text856-4-2">
      <path
         d="m -37.350394,14.215354 q -0.103353,-0.02067 -0.217041,-0.06201 -0.103353,-0.04134 -0.186035,-0.124024 l -1.260905,-1.943034 h -4.950602 l -1.291911,1.984375 q -0.496094,0.289388 -0.785482,-0.07235 -0.08268,-0.103353 -0.103353,-0.217041 -0.02067,-0.113688 0,-0.248047 l 1.405599,-2.232421 q 0.124024,-0.33073 0.496094,-0.268718 l 4.51652,-0.01033 -2.222087,-3.317627 q -0.186035,-0.4754232 0.144694,-0.7338053 0.33073,-0.2790527 0.713135,0.062012 l 4.206462,6.2941896 q 0.165364,0.289388 0.02067,0.599446 -0.186035,0.206706 -0.279052,0.237712 -0.09302,0.03101 -0.206706,0.05168 z"
         style="fill:#3a3b3b;fill-opacity:1;stroke-width:0.26458332"
         id="path48" />
    </g>
  </g>
</svg>
